<?xml version="1.0" encoding="UTF-8"?>
<svg id="Layer_1" xmlns="http://www.w3.org/2000/svg" xmlns:xlink="http://www.w3.org/1999/xlink" version="1.1" viewBox="0 0 872 872">
  <!-- Generator: Adobe Illustrator 30.2.1, SVG Export Plug-In . SVG Version: 2.1.1 Build 1)  -->
  <defs>
    <style>
      .st0 {
        fill: url(#linear-gradient1);
      }

      .st1 {
        fill: #fdfefd;
      }

      .st2 {
        fill: url(#linear-gradient);
      }

      .st3 {
        fill: #dd792f;
      }

      .st4 {
        fill: #3c9eac;
      }

      .st5 {
        fill: #1c4965;
      }

      .st6 {
        fill: #46909c;
      }
    </style>
    <linearGradient id="linear-gradient" x1="409.48" y1="292.67" x2="727.58" y2="843.64" gradientTransform="translate(0 874) scale(1 -1)" gradientUnits="userSpaceOnUse">
      <stop offset="0" stop-color="#1c4965"/>
      <stop offset=".1" stop-color="#1f506b"/>
      <stop offset=".3" stop-color="#2b7287"/>
      <stop offset=".6" stop-color="#348a9b"/>
      <stop offset=".8" stop-color="#3a98a7"/>
      <stop offset="1" stop-color="#3c9eac"/>
    </linearGradient>
    <linearGradient id="linear-gradient1" x1="782.19" y1="179.8" x2="782.19" y2="852.11" gradientTransform="translate(0 874) scale(1 -1)" gradientUnits="userSpaceOnUse">
      <stop offset="0" stop-color="#1c4965"/>
      <stop offset=".1" stop-color="#4e5556"/>
      <stop offset=".3" stop-color="#956743"/>
      <stop offset=".6" stop-color="#d27632"/>
      <stop offset="1" stop-color="#dd792f"/>
    </linearGradient>
  </defs>
  <path class="st3" d="M705,664c-2,1-7,4-7,2,69-73-35-87-31-161,0-5-21,22-22,23-33,40-46,95-8,136-46-12-79-63-72-110,5-33,20-66,42-91v22l1,11c28-39,62-77,47-128,40,26,61,75,54,122-5,51,23,25,16-14,5-2,13,13,15,15,47,55,34,144-35,173M333,502c-44,25-95,37-135,70-12,2,30-44,34-48,37-38,82-64,128-90,146-75,273-200,303-367,1,231-147,337-330,435"/>
  <path class="st4" d="M624,114c-70-39-152-51-232-39-127.63,17.54-236.24,101.76-285,221,1,2,31,1,33,1l4-13c5.33-20.67,17-35.33,35-44l11-8c34-37,74-71,120-92,98.86-41.05,210.98-35.17,305,16l15-39-6-3Z"/>
  <path class="st6" d="M196,569c32-31,97-49,137-68,3,0-21,15-24,17-98,61-148,171-81,276-109.03-81.54-168.66-213.27-158-349h39c-2,76,12,155,55,217,2-31,17-68,32-93M665,762c-23.33,20-49,36-77,48-125-8-157-130-284-54-5-3-13-30-15-38,.67-2,2-3.67,4-5,26-19.33,55-29.67,87-31,106,4,163,118,285,80"/>
  <path class="st6" d="M550,824c-47,17-86,19-140,7l-8-2c-34-8-66-26-86-55,90-66,149,35,234,50"/>
  <path class="st2" d="M513,421C644.38,324.19,707.59,159.91,675,0c50,119,37,269-46,371q-.67-1.33,0,0c-60,85-169,134-253,191l-43-26,180-115Z"/>
  <path class="st5" d="M164,455c0-6,2.67-9.67,8-11,14-3,8,15,23,20s30-11,25-25c-2.67-8.67-9-13.33-19-14H51c-6-.67-9.67-3.67-11-9,0-6.67,3-10.67,9-12h155c16,0,28,12,33,23,24,54-59,85-73,28M49,316h150c10.67-.67,17.33-6,20-16,2-9-3-19-12-22-11.33-3.33-19.33.33-24,11-2,10-18,11-19,1,0-32,44-46,65-22,25,24,6,69-29,69H49c-13-1-13-21,0-21M238,381H8c-12-3-10-21,2-21h226c12,0,15,19,2,21"/>
  <path class="st3" d="M452,202c42.67,2,77.67,19.67,105,53l-19,23c-22-28.67-50.67-44-86-46M533,215l-22-13,20-37c4-6,9.67-8.33,17-7,7.33,4,9.33,9.67,6,17l-21,40ZM458,187h-25l1-44c1.33-6.67,5.33-10.33,12-11,7.33.67,11.33,4.67,12,12v43Z"/>
  <path class="st6" d="M340,337c1.33,26.67,9.33,50.67,24,72-6.67,5.33-14.67,10.33-24,15-72-87,1-229,112-222v30c-59-3-111,47-112,105M713,718c-66,49-153,27-216-13-67-45-134-63-207-15,2.67-18.67,10-34,22-46l2-2c22-24,62-28,93-25,60,5,104,48,159,71,68,33,156,15,197-50,2,7-45,82-51,80"/>
  <path class="st6" d="M528,623c-22,16-51-3-55-28-4-36,26-59,35-94,8,23,21,40,32,61,13,18,9,51-12,61M174,560c-15,18-43-1-36-23,5-15,15-28,21-43,5,20,30,44,15,66M299,352h-44c-4-.67-6.67-2.67-8-6-5-8,0-19,10-19h42v25ZM384,304c-9.33,16.67-16,34-20,52-23-68,61-132,118-96-41-5-75,14-98,44M725,360c-7,12-26,13-34,2-18-22,11-46,17-68,5,24,34,43,17,66M363,170c-4-10-17-16-25-6-2.67,5.33-2.67,10,0,14l21,38c8-4,15.33-8.67,22-14l-18-32ZM690,651c-25,20-59-3-63-31-4-29,14-55,31-77,2,42,44,48,47,81,0,12-5,21-15,27M742,445c-17-18,4-35,11-55,5,16,22,30,16,48-3,11-19,16-27,7M288,448c-9,9-18,3-20-8,.67-6,3.67-10.33,9-13l35-21,13,22-20,12-15,7M311,275l-36-21c-7.33-4.67-9.33-11-6-19,9-14,28,3,37,7l18,11-13,22ZM334,130h2-2Z"/>
  <path class="st0" d="M728,700l20,12,15,8c120-162,112-355-34-553l-11,48c120,205,109,346,10,485"/>
  <path class="st1" d="M495,563l1,1c-2,14-5,32,7,43,2.67,2,4,3.67,4,5-5.33-1.33-10-4-14-8-11-10-6-29,1-41h1Z"/>
  <path class="st5" d="M728,700c-20,24-61,60-86,78-29,20-58,38-92,46-43,9-87,20-131,8l-19-2c-171-33-172-193-24-268l-33-33c-120,64-174,202-56,297,145,99,368,24,476-106"/>
</svg>