<?xml version="1.0" encoding="UTF-8"?>
<svg id="a" xmlns="http://www.w3.org/2000/svg" xmlns:xlink="http://www.w3.org/1999/xlink" version="1.1" viewBox="0 0 846.43 871.49">
  <!-- Generator: Adobe Illustrator 30.2.1, SVG Export Plug-In . SVG Version: 2.1.1 Build 1)  -->
  <defs>
    <style>
      .st0 {
        fill: url(#linear-gradient1);
      }

      .st1 {
        fill: #fdfefd;
      }

      .st2 {
        fill: url(#linear-gradient);
      }

      .st3 {
        fill: #dd792f;
      }

      .st4 {
        fill: #3c9eac;
      }

      .st5 {
        fill: #1c4965;
      }

      .st6 {
        fill: #46909c;
      }
    </style>
    <linearGradient id="linear-gradient" x1="782.25" y1="846.2" x2="782.25" y2="173.89" gradientTransform="translate(0 -152)" gradientUnits="userSpaceOnUse">
      <stop offset="0" stop-color="#1c4965"/>
      <stop offset=".1" stop-color="#4e5556"/>
      <stop offset=".3" stop-color="#956743"/>
      <stop offset=".6" stop-color="#d27632"/>
      <stop offset="1" stop-color="#dd792f"/>
    </linearGradient>
    <linearGradient id="linear-gradient1" x1="411.78" y1="734.62" x2="729.88" y2="183.65" gradientTransform="translate(0 -152)" gradientUnits="userSpaceOnUse">
      <stop offset="0" stop-color="#1c4965"/>
      <stop offset=".1" stop-color="#1f506b"/>
      <stop offset=".3" stop-color="#2b7287"/>
      <stop offset=".6" stop-color="#348a9b"/>
      <stop offset=".8" stop-color="#3a98a7"/>
      <stop offset="1" stop-color="#3c9eac"/>
    </linearGradient>
  </defs>
  <path class="st3" d="M676.06,680c-2,1-7,4-7,2,69-73-35-87-31-161,0-5-21,22-22,23-33,40-46,95-8,136-46-12-79-63-72-110,5-33,20-66,42-91v22l1,11c28-39,62-77,47-128,40,26,61,75,54,122-5,51,23,25,16-14,5-2,13,13,15,15,47,55,34,144-35,173"/>
  <path class="st6" d="M661.3,668.54c-25,20-59-3-63-31-4-29,14-55,31-77,2,42,44,48,47,81,0,12-5,21-15,27"/>
  <path class="st4" d="M624.06,114c-70-39-152-51-232-39-127.63,17.54-236.24,101.76-285,221,1,2,31,1,33,1l4-13c5.33-20.67,17-35.33,35-44l11-8c34-37,74-71,120-92,98.86-41.05,210.98-35.17,305,16l15-39-6-3Z"/>
  <path class="st6" d="M196.06,569c32-31,97-49,137-68,3,0-21,15-24,17-98,61-148,171-81,276-109.03-81.54-168.66-213.27-158-349h39c-2,76,12,155,55,217,2-31,17-68,32-93M646.06,776c-23.33,20-49,36-77,48-125-8-157-130-284-54-5-3-13-30-15-38,.67-2,2-3.67,4-5,26-19.33,55-29.67,87-31,106,4,163,118,285,80"/>
  <path class="st5" d="M164.06,455c0-6,2.67-9.67,8-11,14-3,8,15,23,20s30-11,25-25c-2.67-8.67-9-13.33-19-14H51.06c-6-.67-9.67-3.67-11-9,0-6.67,3-10.67,9-12h155c16,0,28,12,33,23,24,54-59,85-73,28M49.06,316h150c10.67-.67,17.33-6,20-16,2-9-3-19-12-22-11.33-3.33-19.33.33-24,11-2,10-18,11-19,1,0-32,44-46,65-22,25,24,6,69-29,69H49.06c-13-1-13-21,0-21M238.06,381H8.06c-12-3-10-21,2-21h226c12,0,15,19,2,21"/>
  <path class="st3" d="M452.06,202c42.67,2,77.67,19.67,105,53l-19,23c-22-28.67-50.67-44-86-46M533.06,215l-22-13,20-37c4-6,9.67-8.33,17-7,7.33,4,9.33,9.67,6,17l-21,40ZM458.06,187h-25l1-44c1.33-6.67,5.33-10.33,12-11,7.33.67,11.33,4.67,12,12v43Z"/>
  <path class="st6" d="M340.06,337c1.33,26.67,9.33,50.67,24,72-6.67,5.33-14.67,10.33-24,15-72-87,1-229,112-222v30c-59-3-111,47-112,105M710.73,722.74c-69.07,51.28-160.12,28.26-226.05-13.6-70.12-47.09-140.23-65.93-216.63-15.7,2.79-19.53,10.47-35.58,23.02-48.14l2.09-2.09c23.02-25.12,64.88-29.3,97.33-26.16,62.79,5.23,108.84,50.23,166.39,74.3,71.16,34.53,163.25,15.7,206.16-52.33,2.09,7.33-47.09,85.81-53.37,83.72"/>
  <path class="st6" d="M299.06,352h-44c-4-.67-6.67-2.67-8-6-5-8,0-19,10-19h42v25ZM363.06,170c-4-10-17-16-25-6-2.67,5.33-2.67,10,0,14l21,38c8-4,15.33-8.67,22-14l-18-32ZM288.06,448c-9,9-18,3-20-8,.67-6,3.67-10.33,9-13l35-21,13,22-20,12-15,7M311.06,275l-36-21c-7.33-4.67-9.33-11-6-19,9-14,28,3,37,7l18,11-13,22ZM334.06,130h2-2Z"/>
  <path class="st2" d="M728.06,700l20,12,15,8c120-162,112-355-34-553l-11,48c120,205,109,346,10,485"/>
  <path class="st1" d="M618.19,607.64l1,1c-2,14-5,32,7,43,2.67,2,4,3.67,4,5-5.33-1.33-10-4-14-8-11-10-6-29,1-41h1Z"/>
  <path class="st5" d="M728.06,700c-20,24-61,60-86,78-29,20-58,38-92,46-43,9-81.55,13.12-131,8l-19-2c-171-33-172-193-24-268l-33-33c-120,64-174,202-56,297,145,99,368,24,476-106"/>
  <path class="st0" d="M513.06,421C644.44,324.19,707.66,159.91,675.06,0c50,119,37,269-46,371q-.45-.89,0,0c-60,85-169,134-253,191l-33-33,170-108Z"/>
  <path class="st3" d="M332.63,501.34c-44,25-95,37-135,70-12,2,30-44,34-48,37-38,82-64,128-90,146-75,273-200,303-367,1,231-147,337-330,435"/>
</svg>