<?xml version="1.0" encoding="UTF-8"?>
<svg id="Layer_1" data-name="Layer 1" xmlns="http://www.w3.org/2000/svg" xmlns:xlink="http://www.w3.org/1999/xlink" viewBox="0 0 2560 1024">
  <defs>
    <linearGradient id="linear-gradient" x1="-373.32" y1="-430.69" x2="-55.22" y2="-981.66" gradientTransform="translate(859 1088.5)" gradientUnits="userSpaceOnUse">
      <stop offset="0" stop-color="#1c4965"/>
      <stop offset=".1" stop-color="#1f506b"/>
      <stop offset=".3" stop-color="#2b7287"/>
      <stop offset=".6" stop-color="#348a9b"/>
      <stop offset=".8" stop-color="#3a98a7"/>
      <stop offset="1" stop-color="#3c9eac"/>
    </linearGradient>
    <linearGradient id="linear-gradient-2" x1="-.62" y1="-317.82" x2="-.62" y2="-990.13" gradientTransform="translate(859 1088.5)" gradientUnits="userSpaceOnUse">
      <stop offset="0" stop-color="#1c4965"/>
      <stop offset=".1" stop-color="#4e5556"/>
      <stop offset=".3" stop-color="#956743"/>
      <stop offset=".6" stop-color="#d27632"/>
      <stop offset="1" stop-color="#dd792f"/>
    </linearGradient>
  </defs>
  <g>
    <path d="M781.2,740.48c-2,1-7,4-7,2,69-73-35-87-31-161,0-5-21,22-22,23-33,40-46,95-8,136-46-12-79-63-72-110,5-33,20-66,42-91v22l1,11c28-39,62-77,47-128,40,26,61,75,54,122-5,51,23,25,16-14,5-2,13,13,15,15,47,55,34,144-35,173M409.2,578.48c-44,25-95,37-135,70-12,2,30-44,34-48,37-38,82-64,128-90,146-75,273-200,303-367,1,231-147,337-330,435" fill="#dd792f"/>
    <path d="M700.2,190.48c-70-39-152-51-232-39-127.63,17.54-236.24,101.76-285,221,1,2,31,1,33,1l4-13c5.33-20.67,17-35.33,35-44l11-8c34-37,74-71,120-92,98.86-41.05,210.98-35.17,305,16l15-39-6-3Z" fill="#3c9eac"/>
    <path d="M272.2,645.48c32-31,97-49,137-68,3,0-21,15-24,17-98,61-148,171-81,276-109.03-81.54-168.66-213.27-158-349h39c-2,76,12,155,55,217,2-31,17-68,32-93M741.2,838.48c-23.33,20-49,36-77,48-125-8-157-130-284-54-5-3-13-30-15-38,.67-2,2-3.67,4-5,26-19.33,55-29.67,87-31,106,4,163,118,285,80" fill="#46909c"/>
    <path d="M626.2,900.48c-47,17-86,19-140,7l-8-2c-34-8-66-26-86-55,90-66,149,35,234,50" fill="#46909c"/>
    <path d="M589.2,497.48c131.38-96.81,194.59-261.09,162-421,50,119,37,269-46,371q-.45-.89,0,0c-60,85-169,134-253,191l-43-26,180-115Z" fill="url(#linear-gradient)"/>
    <path d="M240.2,531.48c0-6,2.67-9.67,8-11,14-3,8,15,23,20s30-11,25-25c-2.67-8.67-9-13.33-19-14H127.2c-6-.67-9.67-3.67-11-9,0-6.67,3-10.67,9-12h155c16,0,28,12,33,23,24,54-59,85-73,28M125.2,392.48h150c10.67-.67,17.33-6,20-16,2-9-3-19-12-22-11.33-3.33-19.33.33-24,11-2,10-18,11-19,1,0-32,44-46,65-22,25,24,6,69-29,69H125.2c-13-1-13-21,0-21M314.2,457.48H84.2c-12-3-10-21,2-21h226c12,0,15,19,2,21" fill="#1c4965"/>
    <path d="M528.2,278.48c42.67,2,77.67,19.67,105,53l-19,23c-22-28.67-50.67-44-86-46M609.2,291.48l-22-13,20-37c4-6,9.67-8.33,17-7,7.33,4,9.33,9.67,6,17l-21,40ZM534.2,263.48h-25l1-44c1.33-6.67,5.33-10.33,12-11,7.33.67,11.33,4.67,12,12v43Z" fill="#dd792f"/>
    <path d="M416.2,413.48c1.33,26.67,9.33,50.67,24,72-6.67,5.33-14.67,10.33-24,15-72-87,1-229,112-222v30c-59-3-111,47-112,105M789.2,794.48c-66,49-153,27-216-13-67-45-134-63-207-15,2.67-18.67,10-34,22-46l2-2c22-24,62-28,93-25,60,5,104,48,159,71,68,33,156,15,197-50,2,7-45,82-51,80" fill="#46909c"/>
    <path d="M604.2,699.48c-22,16-51-3-55-28-4-36,26-59,35-94,8,23,21,40,32,61,13,18,9,51-12,61M250.2,636.48c-15,18-43-1-36-23,5-15,15-28,21-43,5,20,30,44,15,66M375.2,428.48h-44c-4-.67-6.67-2.67-8-6-5-8,0-19,10-19h42v25ZM460.2,380.48c-9.33,16.67-16,34-20,52-23-68,61-132,118-96-41-5-75,14-98,44M801.2,436.48c-7,12-26,13-34,2-18-22,11-46,17-68,5,24,34,43,17,66M439.2,246.48c-4-10-17-16-25-6-2.67,5.33-2.67,10,0,14l21,38c8-4,15.33-8.67,22-14l-18-32ZM766.2,727.48c-25,20-59-3-63-31-4-29,14-55,31-77,2,42,44,48,47,81,0,12-5,21-15,27M818.2,521.48c-17-18,4-35,11-55,5,16,22,30,16,48-3,11-19,16-27,7M364.2,524.48c-9,9-18,3-20-8,.67-6,3.67-10.33,9-13l35-21,13,22-20,12-15,7M387.2,351.48l-36-21c-7.33-4.67-9.33-11-6-19,9-14,28,3,37,7l18,11-13,22ZM410.2,206.48h2-2Z" fill="#46909c"/>
    <path d="M804.2,776.48l20,12,15,8c120-162,112-355-34-553l-11,48c120,205,109,346,10,485" fill="url(#linear-gradient-2)"/>
    <path d="M571.2,639.48l1,1c-2,14-5,32,7,43,2.67,2,4,3.67,4,5-5.33-1.33-10-4-14-8-11-10-6-29,1-41h1Z" fill="#fdfefd"/>
    <path d="M804.2,776.48c-20,24-61,60-86,78-29,20-58,38-92,46-43,9-87,20-131,8l-19-2c-171-33-172-193-24-268l-33-33c-120,64-174,202-56,297,145,99,368,24,476-106" fill="#1c4965"/>
  </g>
  <text transform="translate(1023.66 604.4)" fill="#1c4965" font-family="Montserrat-Bold, Montserrat" font-size="440" font-variation-settings="&apos;wght&apos; 700" font-weight="700"><tspan x="0" y="0" letter-spacing=".09em">Lİ</tspan><tspan x="489.27" y="0" letter-spacing=".02em">K</tspan><tspan x="823.23" y="0" letter-spacing=".02em">Y</tspan><tspan x="1128.15" y="0" letter-spacing=".09em">A</tspan></text>
  <text transform="translate(1045.87 763.84) scale(.98 1)" fill="#1c4965" font-family="Montserrat-Bold, Montserrat" font-size="146" font-variation-settings="&apos;wght&apos; 700" font-weight="700"><tspan x="0" y="0" letter-spacing=".04em">ME</tspan><tspan x="249.07" y="0" letter-spacing="0em">K</tspan><tspan x="358.43" y="0" letter-spacing=".04em">ANİK TESİS</tspan><tspan x="1266.24" y="0" letter-spacing="0em">A</tspan><tspan x="1378.81" y="0" letter-spacing=".04em">T</tspan></text>
</svg>