<?xml version="1.0" encoding="UTF-8"?>
<svg id="uuid-ecb373b3-0098-4030-a7ea-4fb08ba7c3ae" data-name="Layer 1" xmlns="http://www.w3.org/2000/svg" xmlns:xlink="http://www.w3.org/1999/xlink" viewBox="0 0 2560 1024">
  <defs>
    <linearGradient id="uuid-5832188d-9c0c-47a7-9294-6b9b220536b5" x1="858.38" y1="922.46" x2="858.38" y2="250.15" gradientTransform="translate(0 -152)" gradientUnits="userSpaceOnUse">
      <stop offset="0" stop-color="#1c4965"/>
      <stop offset=".1" stop-color="#4e5556"/>
      <stop offset=".3" stop-color="#956743"/>
      <stop offset=".6" stop-color="#d27632"/>
      <stop offset="1" stop-color="#dd792f"/>
    </linearGradient>
    <linearGradient id="uuid-bc20a4ba-2585-43e5-ba12-bc5c84d894d4" x1="487.91" y1="810.88" x2="806.01" y2="259.9" gradientTransform="translate(0 -152)" gradientUnits="userSpaceOnUse">
      <stop offset="0" stop-color="#1c4965"/>
      <stop offset=".1" stop-color="#1f506b"/>
      <stop offset=".3" stop-color="#2b7287"/>
      <stop offset=".6" stop-color="#348a9b"/>
      <stop offset=".8" stop-color="#3a98a7"/>
      <stop offset="1" stop-color="#3c9eac"/>
    </linearGradient>
  </defs>
  <g>
    <path d="M1113.48,600.47v-296.4h68.43v240.51h146.51v55.89h-214.94Z" fill="#1c4965"/>
    <path d="M1438.82,277.39c-47.62.4-47.16-71.38,0-71.14,47.11.18,47.55,71.14,0,71.14ZM1404.82,600.47v-296.4h68.43v296.4h-68.43Z" fill="#1c4965"/>
    <path d="M1580.29,600.47v-296.4h67.59v296.4h-67.59ZM1640.74,532.72l-3.36-79.18,140.63-149.47h75.56c-54.31,59.59-157.96,172.01-212.84,228.65ZM1781.37,600.47l-104.53-128.72,44.5-49.12,139.79,177.84h-79.76Z" fill="#1c4965"/>
    <path d="M1971.96,600.47v-121.1l15.53,41.5-129.72-216.8h72.62l99.07,165.98h-41.56l99.49-165.98h66.33l-128.88,216.8,15.53-41.5v121.1h-68.43Z" fill="#1c4965"/>
    <path d="M2151.21,600.47l130.56-296.4h67.17l131.82,296.4h-71.37l-107.89-261.68h27.29l-107.89,261.68h-69.69ZM2217.12,536.96l17.21-52.08h151.97l17.63,52.08h-186.81Z" fill="#1c4965"/>
  </g>
  <g>
    <path d="M1111.35,753.91v-98.35h18.31l40.72,69.41h-9.7l39.9-69.41h18.45v98.35h-20.63l-.27-65.61h4.1l-32.25,55.08h-9.84l-32.66-55.08h4.51v65.61h-20.63Z" fill="#1c4965"/>
    <path d="M1247.31,753.91v-98.35h72.29v18.27h-50.29v61.82h52.06v18.27h-74.06ZM1267.67,712.88v-17.84h46.05v17.84h-46.05Z" fill="#1c4965"/>
    <path d="M1344.47,753.91v-98.35h22v98.35h-22ZM1364.14,731.43l-1.09-26.27,45.78-49.6h24.6c-17.67,19.77-51.41,57.07-69.28,75.87ZM1409.92,753.91l-34.02-42.71,14.48-16.3,45.5,59.01h-25.96Z" fill="#1c4965"/>
    <path d="M1438.48,753.91l42.5-98.35h21.86l42.91,98.35h-23.23l-35.12-86.83h8.88l-35.12,86.83h-22.68ZM1459.93,732.83l5.6-17.28h49.47l5.74,17.28h-60.81Z" fill="#1c4965"/>
    <path d="M1561.18,753.91v-98.35h18.31l56.43,70.81h-8.88v-70.81h21.86v98.35h-18.31l-56.43-70.81h8.88v70.81h-21.86Z" fill="#1c4965"/>
    <path d="M1688.13,646.7c-15.29.64-15.16-24.18,0-23.6,15.13-.48,15.25,24.14,0,23.6ZM1677.06,753.91v-98.35h22.27v98.35h-22.27Z" fill="#1c4965"/>
    <path d="M1727.34,753.91v-98.35h22v98.35h-22ZM1747.02,731.43l-1.09-26.27,45.78-49.6h24.6c-17.67,19.77-51.41,57.07-69.28,75.87ZM1792.8,753.91l-34.02-42.71,14.48-16.3,45.5,59.01h-25.96Z" fill="#1c4965"/>
    <path d="M1897.87,753.91v-79.8h-30.61v-18.55h83.35v18.55h-30.61v79.8h-22.14Z" fill="#1c4965"/>
    <path d="M1967.97,753.91v-98.35h72.29v18.27h-50.29v61.82h52.06v18.27h-74.06ZM1988.33,712.88v-17.84h46.05v17.84h-46.05Z" fill="#1c4965"/>
    <path d="M2096.69,755.59c-13.22.08-29.31-3.74-39.08-11.38l7.52-17.14c8.29,6.22,20.85,10.38,31.57,10.26,10.46,1.38,25.02-6.95,15.44-16.79-14.83-9.4-39.51-5.91-49.53-23.18-17.12-42.7,42.59-53.31,70.44-34.77l-6.97,17.14c-36.06-21.76-67.9,8.88-22.68,16.23,50.25,6.92,42.06,60.59-6.69,59.64Z" fill="#1c4965"/>
    <path d="M2168.84,646.7c-15.29.64-15.16-24.18,0-23.6,15.13-.48,15.25,24.14,0,23.6ZM2157.77,753.91v-98.35h22.27v98.35h-22.27Z" fill="#1c4965"/>
    <path d="M2239.62,755.59c-13.22.08-29.31-3.74-39.08-11.38l7.52-17.14c8.29,6.22,20.85,10.38,31.57,10.26,10.46,1.38,25.02-6.95,15.44-16.79-14.83-9.4-39.51-5.91-49.53-23.18-17.12-42.7,42.59-53.31,70.44-34.77l-6.97,17.14c-36.06-21.76-67.9,8.88-22.68,16.23,50.25,6.92,42.06,60.59-6.69,59.64Z" fill="#1c4965"/>
    <path d="M2288.12,753.91l42.5-98.35h21.86l42.91,98.35h-23.23l-35.12-86.83h8.88l-35.12,86.83h-22.68ZM2309.58,732.83l5.6-17.28h49.47l5.74,17.28h-60.81Z" fill="#1c4965"/>
    <path d="M2430.64,753.91v-79.8h-30.61v-18.55h83.35v18.55h-30.61v79.8h-22.14Z" fill="#1c4965"/>
  </g>
  <path d="M752.2,756.26c-2,1-7,4-7,2,69-73-35-87-31-161,0-5-21,22-22,23-33,40-46,95-8,136-46-12-79-63-72-110,5-33,20-66,42-91v22l1,11c28-39,62-77,47-128,40,26,61,75,54,122-5,51,23,25,16-14,5-2,13,13,15,15,47,55,34,144-35,173" fill="#dd792f"/>
  <path d="M737.44,744.79c-25,20-59-3-63-31-4-29,14-55,31-77,2,42,44,48,47,81,0,12-5,21-15,27" fill="#46909c"/>
  <path d="M700.2,190.26c-70-39-152-51-232-39-127.63,17.54-236.24,101.76-285,221,1,2,31,1,33,1l4-13c5.33-20.67,17-35.33,35-44l11-8c34-37,74-71,120-92,98.86-41.05,210.98-35.17,305,16l15-39-6-3Z" fill="#3c9eac"/>
  <path d="M272.2,645.26c32-31,97-49,137-68,3,0-21,15-24,17-98,61-148,171-81,276-109.03-81.54-168.66-213.27-158-349h39c-2,76,12,155,55,217,2-31,17-68,32-93M722.2,852.26c-23.33,20-49,36-77,48-125-8-157-130-284-54-5-3-13-30-15-38,.67-2,2-3.67,4-5,26-19.33,55-29.67,87-31,106,4,163,118,285,80" fill="#46909c"/>
  <path d="M240.2,531.26c0-6,2.67-9.67,8-11,14-3,8,15,23,20s30-11,25-25c-2.67-8.67-9-13.33-19-14H127.2c-6-.67-9.67-3.67-11-9,0-6.67,3-10.67,9-12h155c16,0,28,12,33,23,24,54-59,85-73,28M125.2,392.26h150c10.67-.67,17.33-6,20-16,2-9-3-19-12-22-11.33-3.33-19.33.33-24,11-2,10-18,11-19,1,0-32,44-46,65-22,25,24,6,69-29,69H125.2c-13-1-13-21,0-21M314.2,457.26H84.2c-12-3-10-21,2-21h226c12,0,15,19,2,21" fill="#1c4965"/>
  <path d="M528.2,278.26c42.67,2,77.67,19.67,105,53l-19,23c-22-28.67-50.67-44-86-46M609.2,291.26l-22-13,20-37c4-6,9.67-8.33,17-7,7.33,4,9.33,9.67,6,17l-21,40ZM534.2,263.26h-25l1-44c1.33-6.67,5.33-10.33,12-11,7.33.67,11.33,4.67,12,12v43Z" fill="#dd792f"/>
  <path d="M416.2,413.26c1.33,26.67,9.33,50.67,24,72-6.67,5.33-14.67,10.33-24,15-72-87,1-229,112-222v30c-59-3-111,47-112,105M786.87,799c-69.07,51.28-160.12,28.26-226.05-13.6-70.12-47.09-140.23-65.93-216.63-15.7,2.79-19.53,10.47-35.58,23.02-48.14l2.09-2.09c23.02-25.12,64.88-29.3,97.33-26.16,62.79,5.23,108.84,50.23,166.39,74.3,71.16,34.53,163.25,15.7,206.16-52.33,2.09,7.33-47.09,85.81-53.37,83.72" fill="#46909c"/>
  <path d="M375.2,428.26h-44c-4-.67-6.67-2.67-8-6-5-8,0-19,10-19h42v25ZM439.2,246.26c-4-10-17-16-25-6-2.67,5.33-2.67,10,0,14l21,38c8-4,15.33-8.67,22-14l-18-32ZM364.2,524.26c-9,9-18,3-20-8,.67-6,3.67-10.33,9-13l35-21,13,22-20,12-15,7M387.2,351.26l-36-21c-7.33-4.67-9.33-11-6-19,9-14,28,3,37,7l18,11-13,22ZM410.2,206.26h2-2Z" fill="#46909c"/>
  <path d="M804.2,776.26l20,12,15,8c120-162,112-355-34-553l-11,48c120,205,109,346,10,485" fill="url(#uuid-5832188d-9c0c-47a7-9294-6b9b220536b5)"/>
  <path d="M694.33,683.9l1,1c-2,14-5,32,7,43,2.67,2,4,3.67,4,5-5.33-1.33-10-4-14-8-11-10-6-29,1-41h1Z" fill="#fdfefd"/>
  <path d="M804.2,776.26c-20,24-61,60-86,78-29,20-58,38-92,46-43,9-81.55,13.12-131,8l-19-2c-171-33-172-193-24-268l-33-33c-120,64-174,202-56,297,145,99,368,24,476-106" fill="#1c4965"/>
  <path d="M589.2,497.26c131.38-96.81,194.6-261.09,162-421,50,119,37,269-46,371q-.45-.89,0,0c-60,85-169,134-253,191l-33-33,170-108Z" fill="url(#uuid-bc20a4ba-2585-43e5-ba12-bc5c84d894d4)"/>
  <path d="M408.77,577.6c-44,25-95,37-135,70-12,2,30-44,34-48,37-38,82-64,128-90,146-75,273-200,303-367,1,231-147,337-330,435" fill="#dd792f"/>
</svg>